PathFileType  4	(X/Y/Z) C:\Users\antoi\Documents\MyRepositories\mobilecap\ResultsAnalysis
DataRate	CameraRate	NumFrames	NumMarkers	Units	OrigDataRate	OrigDataStartFrame	OrigNumFrames
100.0	100.0	6	51	mm	100.0	170	271
Frame#	Time	r_knee			r_shank_antsup			r_ankle			r_calc			r_5meta			r_toe			L_knee			L_shank_antsup			L_ankle			L_calc			L_5meta			L_toe			r_sh2			r_sh3			r_sh4			L_sh2			L_sh3			r_thigh1			r_thigh2			r_thigh3			r_thigh4			r_thigh5			L_thigh1			L_thigh2			L_thigh3			L_thigh4			r.ASIS			r.PSIS			L.ASIS			L.PSIS			C7			R_Shoulder			L_Shoulder			R_Sternum			L_Sternum			R_humerus			R_elbow_med			R_elbow_lat			R_forearm			R_wrist_radius			R_wrist_ulna			L_humerus			L_elbow_med			L_elbow_lat			L_forearm			L_wrist_radius			L_wrist_ulna			R_HJC			L_HJC			R_HJC_reg			L_HJC_reg			
		X1	Y1	Z1	X2	Y2	Z2	X3	Y3	Z3	X4	Y4	Z4	X5	Y5	Z5	X6	Y6	Z6	X7	Y7	Z7	X8	Y8	Z8	X9	Y9	Z9	X10	Y10	Z10	X11	Y11	Z11	X12	Y12	Z12	X13	Y13	Z13	X14	Y14	Z14	X15	Y15	Z15	X16	Y16	Z16	X17	Y17	Z17	X18	Y18	Z18	X19	Y19	Z19	X20	Y20	Z20	X21	Y21	Z21	X22	Y22	Z22	X23	Y23	Z23	X24	Y24	Z24	X25	Y25	Z25	X26	Y26	Z26	X27	Y27	Z27	X28	Y28	Z28	X29	Y29	Z29	X30	Y30	Z30	X31	Y31	Z31	X32	Y32	Z32	X33	Y33	Z33	X34	Y34	Z34	X35	Y35	Z35	X36	Y36	Z36	X37	Y37	Z37	X38	Y38	Z38	X39	Y39	Z39	X40	Y40	Z40	X41	Y41	Z41	X42	Y42	Z42	X43	Y43	Z43	X44	Y44	Z44	X45	Y45	Z45	X46	Y46	Z46	X47	Y47	Z47	X48	Y48	Z48	X49	Y49	Z49	X50	Y50	Z50	X51	Y51	Z51	

170	1.69000000	-118.57240	427.37288	-400.74718	-99.51976	330.41611	-405.85660	-328.41108	97.01024	-408.28132	-400.93856	63.02093	-459.85966	-226.00818	42.64561	-359.84304	-185.69328	68.37411	-412.35450	-100.15113	433.89080	-748.78540	-72.33609	337.86613	-734.56353	-304.53094	102.25213	-737.50161	-387.81893	60.35076	-685.13798	-220.09577	42.65071	-788.04536	-163.70804	62.28594	-737.35409	-164.10936	236.09502	-407.88851	-155.51326	365.22394	-368.33947	-225.10330	274.13184	-364.05224	-131.99165	390.96535	-778.13935	-200.97051	290.54827	-784.98610	-324.20662	607.49159	-379.71536	-226.57433	560.24119	-394.16702	-227.68127	495.42573	-366.75993	-374.39337	502.40079	-376.16439	-266.66503	457.85567	-387.91640	-276.62217	611.53742	-745.62537	-148.72818	558.32303	-729.08892	-315.77135	516.73875	-784.24036	-194.91378	464.60441	-761.14427	-345.79027	676.11246	-444.73882	-528.34035	747.60098	-532.90043	-330.95943	671.81080	-690.61013	-518.08174	747.51034	-628.48625	-275.20452	1150.69330	-547.29679	-235.89547	1099.91715	-380.48302	-189.84672	1095.56840	-686.70834	-180.18516	1035.94413	-510.53877	-175.13735	1038.58059	-555.75390	-303.88971	1000.97482	-310.49175	-501.95572	910.26850	-352.06356	-506.25228	941.75671	-288.22515	-459.86483	868.18506	-245.75015	-399.39892	717.69117	-239.98514	-439.41117	713.45029	-209.27405	-246.70915	999.96346	-786.55860	-442.13139	908.02559	-814.41234	-413.87803	945.06687	-883.40272	-371.11580	885.27649	-909.67546	-317.25113	724.57157	-938.02006	-358.60453	729.62698	-970.10451	-440.87960	606.93193	-471.27016	-427.56741	604.86499	-660.35377	-431.19567	614.90119	-488.47446	-413.84439	614.74761	-650.13965	
171	1.70000000	-116.10111	427.89996	-400.92305	-97.81333	330.15869	-404.87601	-327.77415	97.98794	-408.32194	-400.36728	64.34730	-460.04055	-225.84288	42.62944	-359.94159	-185.33362	68.36170	-412.14955	-96.54709	433.87686	-749.57304	-69.99193	336.68143	-734.52012	-304.01544	102.69030	-736.33312	-387.29277	60.89734	-683.59516	-220.21148	43.04583	-787.55210	-163.40851	62.28031	-737.20439	-163.06852	236.20476	-406.67822	-154.28446	366.05950	-368.87492	-223.81332	275.67529	-364.82617	-129.47752	390.44168	-777.80893	-199.55171	290.83756	-784.01275	-324.45495	604.32017	-380.88198	-226.14226	559.11707	-395.70958	-225.42530	494.99878	-366.24146	-372.28451	498.18825	-374.89225	-263.65268	456.13549	-386.70435	-276.66488	608.07371	-743.73284	-147.86187	557.34598	-726.84398	-312.94841	513.55293	-784.98350	-191.51523	463.47902	-762.03881	-343.65594	667.97477	-443.97677	-525.27162	741.11563	-532.80081	-328.18273	661.67614	-690.20867	-515.23482	740.94730	-629.13743	-267.34630	1138.82191	-547.54697	-227.13294	1085.32539	-380.04704	-181.38605	1081.71660	-687.52291	-172.75551	1023.57213	-511.19443	-167.75569	1026.23640	-556.26224	-294.40972	982.27643	-313.23772	-490.34902	890.13786	-358.42951	-495.89257	919.33007	-293.09797	-445.96476	846.71941	-253.35360	-377.69991	700.28914	-251.51844	-416.53775	692.24352	-221.61569	-239.91038	982.83141	-784.33682	-432.69173	885.08111	-803.16394	-408.71124	921.29738	-874.49239	-363.13373	862.96123	-899.38564	-300.02087	705.10538	-922.17308	-341.73922	706.60873	-954.27492	-439.76507	599.88947	-470.49723	-426.11449	596.46762	-659.53526	-429.25678	606.57505	-487.48925	-412.37857	606.29222	-649.50131	
172	1.71000000	-113.54406	428.98254	-400.28099	-95.90298	329.95780	-403.65511	-326.95724	98.78779	-408.94178	-399.74288	65.93286	-460.35035	-225.63174	42.69378	-359.99575	-184.87632	68.37132	-412.00128	-94.04946	433.05420	-750.21009	-68.54794	335.35564	-734.51894	-303.89654	102.77315	-734.93717	-386.91269	60.89696	-682.10867	-220.50779	43.32684	-787.17992	-163.47085	62.22610	-737.10893	-162.00715	236.46797	-405.76691	-152.39038	366.93932	-368.91214	-222.74133	277.36205	-364.97306	-128.00044	389.63966	-777.11113	-198.92025	290.56982	-782.78063	-325.82700	599.94190	-382.39135	-225.95873	558.21706	-397.03831	-223.24387	494.97541	-365.01826	-370.21905	494.64213	-372.71727	-260.73475	454.57985	-384.90351	-276.58835	604.54744	-742.28145	-147.07355	555.65200	-725.36530	-310.88336	510.60509	-785.81504	-188.97597	461.80582	-762.76127	-341.37502	660.44929	-442.75627	-522.57838	735.26469	-532.90615	-325.75747	652.09462	-690.13452	-512.59201	735.01675	-629.55090	-259.71190	1127.76052	-547.96798	-218.65035	1071.56302	-379.60305	-173.55406	1068.45470	-688.32279	-165.68186	1011.97460	-511.89612	-160.80684	1014.47083	-557.01765	-284.86885	964.26539	-316.10860	-479.09632	870.43036	-363.68556	-485.38115	897.17378	-296.79833	-431.39833	825.99272	-259.70018	-354.52274	684.60141	-262.33533	-391.91056	673.05217	-232.68402	-233.59138	966.14837	-782.23409	-422.85736	862.75876	-792.33825	-403.17254	897.81028	-865.79123	-354.57806	841.08854	-889.33545	-281.13010	687.36997	-906.47880	-322.94105	685.09545	-938.69722	-438.73435	593.52561	-469.63311	-424.92579	588.66264	-658.62887	-427.68794	598.55116	-486.40437	-410.86328	598.13411	-649.22505	
173	1.72000000	-110.90266	429.41030	-398.97107	-94.02714	329.70610	-402.17566	-326.24109	99.36327	-409.72320	-399.17800	67.43513	-460.68298	-225.47487	42.69777	-360.09090	-184.44078	68.34418	-411.88488	-93.06494	430.91941	-749.78566	-67.75219	333.72072	-734.87790	-304.13642	102.52796	-733.54770	-386.73699	60.50329	-681.07163	-220.90412	43.58132	-787.20537	-163.81396	62.06891	-737.00500	-160.97915	236.75335	-404.95997	-150.28340	367.38212	-368.41915	-222.04595	278.70817	-364.36769	-127.48085	388.44609	-776.11163	-198.87674	289.58765	-781.58757	-326.87070	596.54503	-383.70133	-226.12812	557.10470	-397.79309	-221.00915	495.05621	-363.18885	-368.46157	491.44692	-370.68312	-258.34734	452.99038	-382.91699	-276.15783	600.91100	-741.47311	-146.47611	553.14080	-724.80890	-309.81942	507.62450	-787.00735	-187.41070	459.34859	-763.26995	-339.27695	652.85891	-441.54476	-520.12395	730.04989	-533.41048	-323.87778	643.48982	-690.59498	-510.13828	729.59580	-629.84301	-252.67169	1117.61609	-548.76696	-210.53292	1058.60430	-379.28529	-166.45057	1055.80062	-689.15739	-159.20666	1000.86207	-512.53171	-154.39405	1003.29934	-558.07097	-275.19524	947.16902	-318.87466	-467.52746	850.57111	-367.31247	-474.11470	874.87691	-299.44176	-416.06885	805.92491	-264.70601	-330.12460	670.13004	-273.11465	-365.93434	655.96127	-242.45786	-227.60276	949.88978	-780.33353	-412.67374	840.76557	-782.40933	-396.83559	874.41587	-857.61775	-345.18645	819.55043	-879.66155	-260.90330	671.16033	-890.72194	-302.12652	664.36909	-922.52683	-438.01200	587.36670	-469.30688	-424.11496	581.66598	-658.27467	-426.81546	591.26204	-485.48374	-409.84052	590.48867	-649.40636	
174	1.73000000	-108.81009	428.61106	-397.54823	-92.41464	329.17113	-400.59564	-325.75054	99.99890	-410.05771	-398.66908	68.48453	-461.23133	-225.46109	42.64104	-360.20218	-184.13248	68.27170	-411.76860	-92.90211	427.98910	-748.84646	-67.22929	331.69726	-735.52782	-304.63666	102.02663	-732.77136	-386.85994	59.83094	-680.69458	-221.31279	43.71874	-787.57116	-164.21273	61.94650	-736.98035	-160.07705	236.78469	-404.10958	-148.41298	367.18055	-367.27214	-221.15291	279.28642	-363.60648	-127.39966	386.76224	-775.14293	-199.00931	288.03436	-780.79485	-327.03339	594.25604	-384.60369	-226.44746	555.58931	-398.02705	-218.95148	494.58008	-361.56094	-366.92668	488.36904	-369.47507	-256.57554	451.37134	-381.09778	-275.58905	597.19623	-741.48832	-146.29780	550.02847	-724.89547	-309.48392	504.39711	-788.45733	-186.58766	456.19227	-763.53828	-337.88147	645.23572	-441.30529	-517.90190	725.27004	-534.27799	-322.14778	636.45612	-691.49642	-507.99239	724.58374	-630.17636	-247.69036	1107.50962	-549.24219	-202.85753	1046.36125	-379.30040	-160.08968	1043.84846	-690.11694	-153.57562	990.29732	-513.29562	-148.64280	993.19598	-558.99080	-265.32822	931.14067	-321.22804	-454.92735	830.20346	-369.14424	-461.66421	852.33561	-300.98413	-399.55077	786.21098	-268.96321	-304.76016	656.65160	-284.22731	-338.42068	640.04982	-252.21268	-221.65772	934.12023	-778.59511	-402.05008	819.14223	-773.46706	-389.30792	850.88306	-849.99843	-334.43207	798.36600	-870.32731	-239.73221	656.35829	-874.97601	-279.54775	644.74176	-905.97617	-437.55970	581.18251	-470.05468	-423.38053	575.77906	-659.00714	-426.36374	585.18695	-485.39778	-409.34862	584.00806	-650.07295	
175	1.74000000	-107.83188	427.12982	-396.40582	-91.25898	328.14263	-399.21368	-325.39776	100.56439	-410.12615	-398.23952	68.92697	-462.10890	-225.60437	42.68859	-360.15212	-183.98527	68.17777	-411.69287	-92.64768	425.18276	-748.39306	-66.70977	329.68496	-735.87543	-305.20267	101.46491	-733.05101	-387.25619	59.03075	-680.99999	-221.63457	43.39187	-787.78014	-164.57923	61.90744	-737.16830	-159.32037	236.20308	-403.47554	-147.17123	366.17290	-365.63487	-220.11807	278.53420	-363.17075	-127.12420	384.79018	-774.59812	-198.83700	286.28046	-780.73461	-326.87952	591.61621	-385.24781	-226.40641	553.63473	-398.04629	-217.90560	492.82394	-361.19458	-365.69001	485.53420	-368.56858	-255.20816	449.42914	-379.94721	-275.42287	593.49109	-742.13671	-146.21309	546.79730	-725.37211	-309.38402	500.84484	-789.42601	-186.21036	452.76784	-763.61823	-337.10590	638.22050	-442.28409	-516.01100	720.65846	-535.47921	-320.49400	630.96958	-692.66098	-506.13086	719.91814	-630.72417	-242.05361	1099.10430	-549.39216	-195.33895	1035.06975	-379.40035	-154.39458	1032.60278	-691.19349	-148.64613	980.74007	-514.35439	-143.68069	984.34757	-559.50114	-255.18339	916.22445	-323.00700	-441.72554	809.85943	-369.87491	-448.07351	829.70983	-301.31492	-381.46391	766.87148	-272.84827	-278.49964	644.62028	-295.47230	-309.31781	625.44879	-262.15492	-215.46056	918.92597	-776.91597	-390.83481	798.29176	-765.43400	-380.20994	827.22178	-842.94953	-321.87132	777.47034	-860.95164	-217.65549	642.93645	-858.92930	-255.81653	627.38635	-890.13091	-437.11071	575.22712	-471.70373	-422.48807	570.88014	-660.64945	-425.95101	580.08638	-486.49780	-408.85641	578.80613	-651.29189	
